/* XPM */
static char * kbattery_xpm[] = {
"32 32 8 1",
" 	c none",
".	c #000000000000",
"X	c #777777777777",
"o	c #BBBBBBBBBBBB",
"O	c #444444444444",
"+	c #FFFFFFFFFFFF",
"@	c #EEEE00000000",
"#	c #00000000FFFF",
"              ...               ",
"             .XoX.              ",
"          ....oXO....           ",
"        ..XXXX...OXXX..         ",
"      ..XXXoXXXXXXOXXXX..       ",
"      .XXoXXXoXXXXXXOXOX.       ",
"      ..XXXoXXXXXXOXXXX..       ",
"      ....XXXXXXXXXXX....       ",
"      .+++...........+++.       ",
"      .+++++++@@++++++++.       ",
"      .+++++++@@++++++++.       ",
"      .+++++@@@@++++++++.       ",
"      .+++++@@@@@@++++++.       ",
"      .+++++++@@++++++++.       ",
"      .+++++++@@++++++++.       ",
"      .+++++++++++++++++.       ",
"      .+++++++++++++++++.       ",
"      .#################.       ",
"      .#################.       ",
"      .#################.       ",
"      .#################.       ",
"      .#################.       ",
"      .#################.       ",
"      .#################.       ",
"      .#################.       ",
"      .#################.       ",
"      .#####@@@@@@######.       ",
"      ..####@@@@@@######.       ",
"       ..###############.       ",
"        ..############..        ",
"          ............          ",
"                                "};
