/* XPM */
static char * nobattery_xpm[] = {
"32 32 8 1",
" 	c none",
".	c #000000000000",
"X	c #777777777777",
"o	c #BBBBBBBBBBBB",
"O	c #444444444444",
"+	c #FFFF00000000",
"@	c #FFFFFFFFFFFF",
"#	c #EEEE00000000",
"              ...               ",
"             .XoX.              ",
"          ....oXO....           ",
"        ..XXXX...OXXX..         ",
"      ..XXXoXXXXXXOXXXX..       ",
"    ++.XXoXXXoXXXXXXOXOX.++     ",
"    +++.XXXoXXXXXXOXXXX.+++     ",
"     +++..XXXXXXXXXXX..+++      ",
"      +++@...........@+++       ",
"      .+++@.@.##@.@.@+++.       ",
"      .@+++@.@##.@.@+++..       ",
"      .@@+++######@+++@..       ",
"      .@.@+++#####+++@.@.       ",
"      ..@.@+++##@+++@.@..       ",
"      .@.@.@+++#+++@.@...       ",
"      .@@.@.@+++++@.@.@..       ",
"      .@.@.@.@+++@.@.@.@.       ",
"      ..@.@.@+++++@.@.@..       ",
"      .@.@.@+++@+++@.@...       ",
"      .@@.@+++@.@+++@.@..       ",
"      .@.@+++@.@.@+++@.@.       ",
"      ..@+++@.@.@.@+++@..       ",
"      .@+++@.@.@.@.@+++..       ",
"      .+++@.@.@.@.@.@+++.       ",
"      +++@.@.@.@.@.@.@+++       ",
"     +++@.@.@.@.@.@.@.@+++      ",
"    +++@.@.@######.@.@..+++     ",
"    ++..@.@.######@.@.@..++     ",
"       ..@.@.@.@.@.@.@.@.       ",
"        ..@.@.@.@.@.@...        ",
"          ............          ",
"                                "};
