/* XPM */
static char * laptop_settings_xpm[] = {
"32 32 6 1",
" 	c none",
".	c #000000000000",
"X	c #6B6BBEBEFFFF",
"o	c #FFFFFFFFFFFF",
"O	c #FFFF00000000",
"+	c #CCCCCCCCCCCC",
"                                ",
"             ..                 ",
"            ..X.                ",
"            .XXX.               ",
"            .XXXX.              ",
"            .X.XXX.             ",
"           .XX..XXX.            ",
"           .XX.o.XXX.           ",
"           .X.ooo.XXX.          ",
"           .X.oooo.XXX.         ",
"           .X.ooooo.XXX.        ",
"          .XX.ooooo.XXXX.       ",
"          .XXX.oooo.XXXX..      ",
"          .XXXX.oo.O.XXXX.      ",
"         ...XXXX.o.OO.XXX.      ",
"        .+++.XX.O..OOO.X.       ",
"       .+++++.X.OO.OOO.X.       ",
"      .+++.+++.X.OOOO.XX.       ",
"     .+++.+.+++.X.OOO.X.        ",
"      .+++.+.+++.X.OO.X.        ",
"       .+++.+.+++.X..XX.        ",
"        .+++.+.+++.X.XX.        ",
"         .+++.+.+++.XXX.        ",
"          ..++.+.+++.X.         ",
"           ..++.+.+++..         ",
"            .+++.+.+++.         ",
"             .+++.++++.         ",
"              .++++++.          ",
"               .++++.           ",
"                .++.            ",
"                 ..             ",
"                                "};
