/* XPM */
static char * mini_socket_xpm[] = {
"22 22 5 1",
" 	c none",
".	c #000000000000",
"X	c #FFFFFFFFFFFF",
"o	c #808080808080",
"O	c #50500000ffff",
"                      ",
"                      ",
"                ..... ",
"                .XXX. ",
"                .XXX. ",
"                .XXX. ",
"            .   .XXX. ",
"         o .o   .XXX. ",
"        oOOo  . .XXX. ",
"       oOOOO .o .XXX. ",
"      oOOOOOOo  .XXX. ",
"      oOOOOOOo  .XXX. ",
"      oOOOOOo.  .XXX. ",
"      oOOOOo.   .XXX. ",
"     oOoooo.    .XXX. ",
"    oOoo...     .XXX. ",
"   oOoo         .XXX. ",
"  oOoo          .XXX. ",
"   oo           .XXX. ",
"                .XXX. ",
"                .XXX. ",
"                ..... "};
