/* XPM */
static char * mini_pcmcia_xpm[] = {
"16 16 5 1",
" 	c none",
".	c #000000000000",
"X	c #FFFFFFFFFFFF",
"o	c #FFFF00000000",
"O	c #00000000FFFF",
"         .      ",
"        .X.     ",
"       .XXX..   ",
"      .XXXXX..  ",
"     .XXX.XXX.  ",
"    .XXXXX.XXX. ",
"   .XXXXoXX.XXX.",
"  .XXXOXXoXXXX. ",
" .XXXXXOXXXXX.  ",
"...XXXXXOXXX.   ",
" ...XXXXXXX.    ",
"  ...XXXXX.     ",
"   ...XXX.      ",
"    ...X.       ",
"     ...        ",
"      .         "};
