/* XPM */
static char * mini_socket_xpm[] = {
"16 16 5 1",
" 	c none",
".	c #000000000000",
"X	c #FFFFFFFFFFFF",
"o	c #808080808080",
"O	c #50500000ffff",
"                ",
"                ",
"            .   ",
"         o .o   ",
"        oOOo  . ",
"       oOOOO .o ",
"      oOOOOOOo  ",
"      oOOOOOOo  ",
"      oOOOOOo.  ",
"      oOOOOo.   ",
"     oOoooo.    ",
"    oOoo...     ",
"   oOoo         ",
"  oOoo          ",
"   oo           ",
"                "};
