/* XPM */
static char * mini_nobattery_xpm[] = {
"22 22 12 1",
" 	c none",
".	c #000000000000",
"X	c #999999999999",
"o	c #555555555555",
"O	c #777777777777",
"+	c #888888888888",
"@	c #444444444444",
"#	c #666666666666",
"$	c #FFFF00000000",
"%	c #333333333333",
"&	c #FFFFFFFFFFFF",
"*	c #EEEE00000000",
"          ...         ",
"        ...Xo..       ",
"      ..O+@..#O..     ",
"   $$.oX+O+OO#O##.$$  ",
"   $$$%.XOOOO#OO.$$$  ",
"    $$$&.@%%@%%o$$$   ",
"     $$$&.&$&.&$$$    ",
"     .$$$&.*.&$$$.    ",
"     .&$$$***$$$&.    ",
"     ..&$$$*$$$&..    ",
"     .&.&$$$$$&.&.    ",
"     ..&.&$$$&.&..    ",
"     .&.&$$$$$&.&.    ",
"     ..&$$$&$$$&..    ",
"     .&$$$&.&$$$&.    ",
"     .$$$&.&.&$$$.    ",
"     $$$&.&.&.&$$$    ",
"    $$$&.&...&.&$$$   ",
"   $$$&.&****.&.&$$$  ",
"   $$..&.&.&.&.&..$$  ",
"      ..&.&.&.&..     ",
"        ........      "};
