/* XPM */
static char * pcmcia_xpm[] = {
"32 32 6 1",
" 	c none",
".	c #000000000000",
"X	c #FFFFFFFFFFFF",
"o	c #FFFF00000000",
"O	c #00000000FFFF",
"+	c #0000FFFF0000",
"                     .          ",
"                    .X.         ",
"                   .XXX.        ",
"                  .XXXXX.       ",
"                 .XXXXXXX..     ",
"                .XXXXXXXXX..    ",
"               .XXXXXXXXXXX.    ",
"              .XXXXX..XXXXXX.   ",
"             .XXXXXX...XXXXXX.  ",
"            .XXXXXXXX...XXXXXX. ",
"           .XXXXXoXXXX...XXXXXX.",
"          .XXXXXXooXXXX..XXXXX. ",
"         .XXXXXXXXooXXXXXXXXX.  ",
"        .XXXXXXXXXXooXXXXXXX.   ",
"       .XXXXXXXOXXXXooXXXXX.    ",
"      .XXXXXXXX+OXXXXXXXXX.     ",
"     .XXXXXXXXXX+OXXXXXXX.      ",
"    .XXXXX.XXXXXXXXXXXXX.       ",
"   .XXXXXXX.XXXXXXXXXXX.        ",
"  .XXXXXXXXX.XXXXXXXXX.         ",
" ..XXXXXXXXXX.XXXXXXX.          ",
"....XXXXXXXXXX.XXXXX.           ",
" ....XXXXXXXXXXXXXX.            ",
"  ....XXXXXXXXXXXX.             ",
"   ....XXXXXXXXXX.              ",
"    ....XXXXXXXX.               ",
"     ....XXXXXX.                ",
"      ....XXXX.                 ",
"       ....XX.                  ",
"        .....                   ",
"         ...                    ",
"          .                     "};
