/* XPM */
static char * socket_xpm[] = {
"32 32 11 1",
" 	c none",
".	c #000000000000",
"X	c #C0C0C0C0C0C0",
"o	c #FFFFFFFFFFFF",
"O	c #A7A79F9FFFFF",
"+	c #00000000FFFF",
"@	c #808000000000",
"#	c #FFFFFFFFC0C0",
"$	c #FFFFFFFF0000",
"%	c #C0C0C0C00000",
"&	c #808080800000",
"                                ",
"                                ",
"                     .          ",
"                    .X.         ",
"                   .X.          ",
"              ... .X.           ",
"             .OOO.O.     .      ",
"            .O+++++.    .X.     ",
"           .O+++++++.  .X.      ",
"          .O+++++++++..X.       ",
"         .O+++++++++++O.        ",
"         .O+++++++++++.         ",
"         .O+++++++++++@.        ",
"         .O+++++++++++@.        ",
"         .O+++++++++++@.        ",
"         .O++++++++++@..        ",
"         .O+++++++++@..         ",
"         .O++++++++@..          ",
"        .#O+++++++@..           ",
"       .#$%@@@@@@@..            ",
"      .#$%&........             ",
"     .#$%&........              ",
"    .#$%&..                     ",
"   .#$%&..                      ",
"   .$%&..                       ",
"    .&..                        ",
"     ..                         ",
"                                ",
"                                ",
"                                ",
"                                ",
"                                "};
